<mxfile host="app.diagrams.net" modified="2021-07-10T15:48:47.279Z" agent="5.0 (Windows NT 10.0; Win64; x64) AppleWebKit/537.36 (KHTML, like Gecko) Chrome/91.0.4472.124 Safari/537.36" etag="ivJ1hMDzuAvs8mYz3IGI" version="14.8.4" type="github">
  <diagram id="2x2X7iJ_FsSdkjiqKiY3" name="Page-1">
    <mxGraphModel dx="868" dy="450" grid="1" gridSize="10" guides="1" tooltips="1" connect="1" arrows="1" fold="1" page="1" pageScale="1" pageWidth="850" pageHeight="1100" math="0" shadow="0">
      <root>
        <mxCell id="0" />
        <mxCell id="1" parent="0" />
        <mxCell id="mHa3pwhOAvgwzVaOhxVP-29" value="config" style="whiteSpace=wrap;html=1;shape=mxgraph.basic.document" vertex="1" parent="1">
          <mxGeometry x="220" y="430" width="40" height="40" as="geometry" />
        </mxCell>
        <mxCell id="mHa3pwhOAvgwzVaOhxVP-4" value="" style="edgeStyle=orthogonalEdgeStyle;rounded=0;orthogonalLoop=1;jettySize=auto;html=1;" edge="1" parent="1" source="mHa3pwhOAvgwzVaOhxVP-1" target="mHa3pwhOAvgwzVaOhxVP-3">
          <mxGeometry relative="1" as="geometry" />
        </mxCell>
        <mxCell id="mHa3pwhOAvgwzVaOhxVP-1" value="User" style="shape=umlActor;verticalLabelPosition=bottom;verticalAlign=top;html=1;outlineConnect=0;" vertex="1" parent="1">
          <mxGeometry x="120" y="130" width="30" height="60" as="geometry" />
        </mxCell>
        <mxCell id="mHa3pwhOAvgwzVaOhxVP-12" value="" style="edgeStyle=orthogonalEdgeStyle;rounded=0;orthogonalLoop=1;jettySize=auto;html=1;" edge="1" parent="1" source="mHa3pwhOAvgwzVaOhxVP-3" target="mHa3pwhOAvgwzVaOhxVP-11">
          <mxGeometry relative="1" as="geometry" />
        </mxCell>
        <mxCell id="mHa3pwhOAvgwzVaOhxVP-3" value="personal &lt;br&gt;environment" style="rounded=1;whiteSpace=wrap;html=1;" vertex="1" parent="1">
          <mxGeometry x="190" y="130" width="120" height="60" as="geometry" />
        </mxCell>
        <mxCell id="mHa3pwhOAvgwzVaOhxVP-5" value="" style="edgeStyle=orthogonalEdgeStyle;rounded=0;orthogonalLoop=1;jettySize=auto;html=1;" edge="1" parent="1" source="mHa3pwhOAvgwzVaOhxVP-6" target="mHa3pwhOAvgwzVaOhxVP-7">
          <mxGeometry relative="1" as="geometry" />
        </mxCell>
        <mxCell id="mHa3pwhOAvgwzVaOhxVP-6" value="User" style="shape=umlActor;verticalLabelPosition=bottom;verticalAlign=top;html=1;outlineConnect=0;" vertex="1" parent="1">
          <mxGeometry x="120" y="220" width="30" height="60" as="geometry" />
        </mxCell>
        <mxCell id="mHa3pwhOAvgwzVaOhxVP-14" value="" style="edgeStyle=orthogonalEdgeStyle;rounded=0;orthogonalLoop=1;jettySize=auto;html=1;" edge="1" parent="1" source="mHa3pwhOAvgwzVaOhxVP-7" target="mHa3pwhOAvgwzVaOhxVP-13">
          <mxGeometry relative="1" as="geometry" />
        </mxCell>
        <mxCell id="mHa3pwhOAvgwzVaOhxVP-7" value="personal &lt;br&gt;environment" style="rounded=1;whiteSpace=wrap;html=1;" vertex="1" parent="1">
          <mxGeometry x="190" y="220" width="120" height="60" as="geometry" />
        </mxCell>
        <mxCell id="mHa3pwhOAvgwzVaOhxVP-8" value="" style="edgeStyle=orthogonalEdgeStyle;rounded=0;orthogonalLoop=1;jettySize=auto;html=1;" edge="1" parent="1" source="mHa3pwhOAvgwzVaOhxVP-9" target="mHa3pwhOAvgwzVaOhxVP-10">
          <mxGeometry relative="1" as="geometry" />
        </mxCell>
        <mxCell id="mHa3pwhOAvgwzVaOhxVP-9" value="User" style="shape=umlActor;verticalLabelPosition=bottom;verticalAlign=top;html=1;outlineConnect=0;" vertex="1" parent="1">
          <mxGeometry x="120" y="310" width="30" height="60" as="geometry" />
        </mxCell>
        <mxCell id="mHa3pwhOAvgwzVaOhxVP-16" value="" style="edgeStyle=orthogonalEdgeStyle;rounded=0;orthogonalLoop=1;jettySize=auto;html=1;" edge="1" parent="1" source="mHa3pwhOAvgwzVaOhxVP-10" target="mHa3pwhOAvgwzVaOhxVP-15">
          <mxGeometry relative="1" as="geometry" />
        </mxCell>
        <mxCell id="mHa3pwhOAvgwzVaOhxVP-10" value="personal &lt;br&gt;environment" style="rounded=1;whiteSpace=wrap;html=1;" vertex="1" parent="1">
          <mxGeometry x="190" y="310" width="120" height="60" as="geometry" />
        </mxCell>
        <mxCell id="mHa3pwhOAvgwzVaOhxVP-11" value="Machine Learning Model" style="whiteSpace=wrap;html=1;rounded=1;" vertex="1" parent="1">
          <mxGeometry x="390" y="130" width="120" height="60" as="geometry" />
        </mxCell>
        <mxCell id="mHa3pwhOAvgwzVaOhxVP-13" value="Model can not fit production criteria" style="shape=trapezoid;perimeter=trapezoidPerimeter;whiteSpace=wrap;html=1;fixedSize=1;rounded=1;" vertex="1" parent="1">
          <mxGeometry x="390" y="220" width="120" height="60" as="geometry" />
        </mxCell>
        <mxCell id="mHa3pwhOAvgwzVaOhxVP-15" value="&#xa;&#xa;&lt;span style=&quot;color: rgb(0, 0, 0); font-family: helvetica; font-size: 12px; font-style: normal; font-weight: 400; letter-spacing: normal; text-align: center; text-indent: 0px; text-transform: none; word-spacing: 0px; background-color: rgb(248, 249, 250); display: inline; float: none;&quot;&gt;Model can not fit production criteria&lt;/span&gt;&#xa;&#xa;" style="shape=hexagon;perimeter=hexagonPerimeter2;whiteSpace=wrap;html=1;fixedSize=1;rounded=1;" vertex="1" parent="1">
          <mxGeometry x="390" y="300" width="120" height="80" as="geometry" />
        </mxCell>
        <mxCell id="mHa3pwhOAvgwzVaOhxVP-19" value="" style="edgeStyle=orthogonalEdgeStyle;rounded=0;orthogonalLoop=1;jettySize=auto;html=1;" edge="1" parent="1" target="mHa3pwhOAvgwzVaOhxVP-18">
          <mxGeometry relative="1" as="geometry">
            <mxPoint x="190" y="480" as="sourcePoint" />
          </mxGeometry>
        </mxCell>
        <mxCell id="mHa3pwhOAvgwzVaOhxVP-17" value="User" style="shape=umlActor;verticalLabelPosition=bottom;verticalAlign=top;html=1;outlineConnect=0;" vertex="1" parent="1">
          <mxGeometry x="120" y="450" width="30" height="60" as="geometry" />
        </mxCell>
        <mxCell id="mHa3pwhOAvgwzVaOhxVP-26" value="" style="edgeStyle=orthogonalEdgeStyle;rounded=0;orthogonalLoop=1;jettySize=auto;html=1;" edge="1" parent="1" source="mHa3pwhOAvgwzVaOhxVP-18">
          <mxGeometry relative="1" as="geometry">
            <mxPoint x="430" y="480" as="targetPoint" />
          </mxGeometry>
        </mxCell>
        <mxCell id="mHa3pwhOAvgwzVaOhxVP-18" value="Unified Machine Learning Pipeline" style="whiteSpace=wrap;html=1;verticalAlign=top;" vertex="1" parent="1">
          <mxGeometry x="280" y="450" width="120" height="60" as="geometry" />
        </mxCell>
        <mxCell id="mHa3pwhOAvgwzVaOhxVP-20" value="" style="endArrow=none;html=1;" edge="1" parent="1">
          <mxGeometry width="50" height="50" relative="1" as="geometry">
            <mxPoint x="90" y="420" as="sourcePoint" />
            <mxPoint x="600" y="420" as="targetPoint" />
          </mxGeometry>
        </mxCell>
        <mxCell id="mHa3pwhOAvgwzVaOhxVP-21" value="Before" style="text;html=1;strokeColor=none;fillColor=none;align=center;verticalAlign=middle;whiteSpace=wrap;rounded=0;" vertex="1" parent="1">
          <mxGeometry x="70" y="100" width="40" height="20" as="geometry" />
        </mxCell>
        <mxCell id="mHa3pwhOAvgwzVaOhxVP-22" value="After" style="text;html=1;strokeColor=none;fillColor=none;align=center;verticalAlign=middle;whiteSpace=wrap;rounded=0;" vertex="1" parent="1">
          <mxGeometry x="50" y="430" width="40" height="20" as="geometry" />
        </mxCell>
        <mxCell id="mHa3pwhOAvgwzVaOhxVP-23" value="User" style="shape=umlActor;verticalLabelPosition=bottom;verticalAlign=top;html=1;outlineConnect=0;" vertex="1" parent="1">
          <mxGeometry x="130" y="460" width="30" height="60" as="geometry" />
        </mxCell>
        <mxCell id="mHa3pwhOAvgwzVaOhxVP-24" value="User" style="shape=umlActor;verticalLabelPosition=bottom;verticalAlign=top;html=1;outlineConnect=0;" vertex="1" parent="1">
          <mxGeometry x="140" y="470" width="30" height="60" as="geometry" />
        </mxCell>
        <mxCell id="mHa3pwhOAvgwzVaOhxVP-27" value="config" style="whiteSpace=wrap;html=1;shape=mxgraph.basic.document" vertex="1" parent="1">
          <mxGeometry x="210" y="436" width="40" height="40" as="geometry" />
        </mxCell>
        <mxCell id="mHa3pwhOAvgwzVaOhxVP-28" value="Machine Learning Models" style="whiteSpace=wrap;html=1;rounded=1;" vertex="1" parent="1">
          <mxGeometry x="430" y="450" width="120" height="60" as="geometry" />
        </mxCell>
      </root>
    </mxGraphModel>
  </diagram>
</mxfile>
